<?xml version="1.0" encoding="UTF-8"?>
<svg enable-background="new 0 0 1826 1744.473" version="1.1" viewBox="0 0 1826 1744.473" xmlns="http://www.w3.org/2000/svg">
 <path d="m314.16 637.33c5.092 13.987 16.952 22.332 31.715 22.332 2.694 0 5.494-0.279 8.415-0.837l-14.022 10.377 17.972 13.935c5.319 4.587 58.886 55.006 98.841 92.72-99.382 103.32-194.32 164.55-255.89 164.55-13.525 0-54.683 0-61.145-70.24l-0.017-0.122c-6.636-67.013 17.885-156.48 70.911-258.74 47.943-92.467 116.74-190.19 193.71-275.16 109.12-120.47 216.46-195.3 280.13-195.3 18.12 0 43.626 5.084 55.826 49.05l0.044 0.157c15.958 55.459-6.479 151.24-63.211 270.39-1.264-0.619-2.616-1.273-4.064-1.979-16.149-7.865-49.756-24.224-117-56.296l-24.782-11.824-0.087 14.998c-0.427-1.875-0.95-3.697-1.596-5.45-5.136-13.952-17.039-22.288-31.846-22.288-16.115 0-36.144 9.74-61.232 29.77l-0.34 0.288c-38.656 32.508-73.396 76.213-97.839 123.07-11.213 21.501-36.048 74.928-24.494 106.61z" fill="#fff"/>
 <path d="m1697.9 1198.6c72.917 30.834 24.477 201.89-76.256 197.77-4.299-0.837-8.868-1.169-12.653-3.558 43.844-44.515 85.255-122.96 88.909-194.21z"/>
 <path d="m1647.8 1108.2c12.164 11.973 33.101 26.84 31.715 76.771-4.299 91.726-80.146 212.13-141.88 227.62-24.416 7.299-46.547-6.566-96.496-38.447-9.191-5.834-17.78-12.539-26.683-18.774-0.017-0.445-0.052-1.334-0.07-1.779 88.569-67.711 148.19-175.32 153.7-294.98 27.834 10.935 59.026 31.043 79.71 49.591z"/>
 <path d="m1372.8 1349.5c-219.88 155.35-582.96 427.47-608.14 244.03-1.753-10.97-1.7-22.149-0.078-33.127 17.606-132.74 169.87-17.039 348.53-192.95-6.331-17.859-12.173-35.9-18.05-53.916 20.762-17.187 47.855-46.216 64.851-70.929 102.75 46.408 197.32 97.193 212.84 105.22 0.016 0.418 0.043 1.255 0.051 1.674z"/>
 <path d="m1390.7 1335.6c-310.79-168.78-645.65-293.89-991.83-366.75-13.682-3.078-27.538-5.406-41.158-8.659 221.64-144.75 441.94-483.71 463.4-702.07 139.53 342.71 397.3 609.19 724.49 792.2-10.411 126.15-65.565 220.3-154.9 285.28z"/>
 <path d="m447.73 420.99c118.65-94.752 68.347 92.955-49.355 193.03-121.04 100.26-71.653-91.246 49.355-193.03z"/>
 <path d="m457.08 775.85c-39.955-37.714-93.522-88.133-98.841-92.72l-17.972-13.934 14.022-10.377c-2.921 0.558-5.72 0.837-8.415 0.837-14.763 0-26.622-8.345-31.715-22.332-11.554-31.68 13.281-85.107 24.495-106.61 24.442-46.853 59.183-90.557 97.839-123.07l0.34-0.288c25.087-20.03 45.117-29.77 61.232-29.77 14.807 0 26.709 8.336 31.846 22.288 0.645 1.753 1.168 3.575 1.596 5.45l0.087-14.998 24.782 11.824c67.24 32.072 100.85 48.431 117 56.296 1.448 0.706 2.799 1.36 4.064 1.979 56.732-119.15 79.169-214.93 63.211-270.39l-0.044-0.157c-12.199-43.966-37.705-49.05-55.826-49.05-63.674 0-171.01 74.835-280.13 195.3-76.963 84.968-145.76 182.69-193.71 275.16-53.026 102.26-77.547 191.73-70.911 258.74l0.017 0.122c6.462 70.24 47.62 70.24 61.145 70.24 61.563 2e-3 156.51-61.23 255.89-164.54zm-58.712-161.84c117.7-100.07 168.01-287.78 49.355-193.03-121.01 101.78-170.4 293.29-49.355 193.03zm-29.212 55.503c4.186 3.253 108.91 102.16 112.61 105.65-186.31 199.31-345.74 241.68-359.08 96.583-30.651-309.21 561.85-949.16 634.73-686.54 29.953 104.12-69.08 291.23-71.469 297.86-5.79-1.116 3.915 2.058-137.07-65.182-0.297 48.187-94.76 199.18-170.32 246-3.087 1.953-6.453 3.444-9.401 5.624z" fill="#fff"/>
 <path d="m94.07 861.42c6.836-248.32 359.22-742.3 599.34-770.74 289.34-31.593-13.193 685.38-391.58 883.59-58.424 30.119-134.88 52.904-179.11 4.011-35.028-39.606-29.918-111.62-28.645-116.86zm663.35-676.2c-72.882-262.62-665.38 377.32-634.73 686.54 13.342 145.09 172.77 102.73 359.08-96.583-3.697-3.488-108.42-102.4-112.61-105.65 2.947-2.18 6.313-3.671 9.4-5.624 75.559-46.818 170.02-197.81 170.32-246 140.98 67.24 131.28 64.066 137.07 65.182 2.39-6.627 101.42-193.74 71.47-297.86z"/>
 <path d="m1621.7 1396.4c100.73 4.116 149.17-166.94 76.256-197.77-3.654 71.251-45.065 149.7-88.909 194.21 3.785 2.39 8.354 2.721 12.653 3.558zm57.892-211.36c1.386-49.931-19.55-64.798-31.715-76.771-20.684-18.547-51.875-38.656-79.71-49.591-5.511 119.66-65.13 227.27-153.7 294.98 0.017 0.445 0.052 1.334 0.07 1.779 8.903 6.235 17.492 12.94 26.683 18.774 49.948 31.88 72.08 45.745 96.496 38.447 61.73-15.488 137.58-135.89 141.88-227.62zm-1377.7-210.74c378.39-198.22 680.92-915.18 391.58-883.59-240.11 28.436-592.5 522.42-599.34 770.74-1.273 5.241-6.383 77.259 28.645 116.87 44.228 48.892 120.68 26.107 179.11-4.012zm462.82 619.23c25.183 183.44 388.27-88.682 608.14-244.03-9e-3 -0.419-0.035-1.256-0.052-1.674-15.513-8.022-110.09-58.808-212.84-105.22-16.995 24.713-44.088 53.741-64.851 70.929 5.877 18.016 11.72 36.057 18.05 53.916-178.66 175.91-330.92 60.203-348.53 192.95-1.621 10.978-1.674 22.157 0.079 33.127zm-365.78-624.62c346.18 72.856 681.04 197.97 991.83 366.75 89.336-64.981 144.49-159.13 154.9-285.28-327.19-183.01-584.96-449.48-724.49-792.2-21.46 218.37-241.76 557.32-463.4 702.07 13.621 3.253 27.477 5.581 41.159 8.659zm438.39-717.31c131.66 323.36 378.72 593.81 714.55 782.26l0.017-0.323 22.672 8.912c28.183 11.066 61.537 31.802 84.985 52.835l0.297 0.27 0.288 0.288c0.985 0.968 2.032 1.953 3.122 2.991 12.67 11.973 33.52 31.706 33.851 80.486l7.665 3.244c19.672 8.319 33.781 24.643 40.792 47.201 5.895 18.966 6.479 41.472 1.683 65.095-6.13 30.276-20.265 58.773-39.781 80.25-23.064 25.384-51.474 38.804-82.177 38.804-1.439 0-2.834-0.035-4.273-0.096l-1.325-0.052-1.299-0.253c-0.732-0.14-1.465-0.262-2.197-0.384-4.412-0.75-10.455-1.77-16.437-5.546l-8.903-5.624c-16.315 14.031-32.796 23.5-48.492 27.52-5.799 1.7-11.484 2.52-17.37 2.52-25.619 0-49.599-15.304-93.13-43.086-6.418-4.081-12.478-8.485-18.338-12.749-3.087-2.241-5.999-4.36-8.964-6.444l-7.072-4.953-0.418-10.447-0.061-1.639-4.892 3.558-1.692-0.916 0.07 3.069-7.586 5.354c-14.257 10.08-28.942 20.518-44.481 31.567-84.078 59.776-179.38 127.53-269.36 181.63-106.68 64.136-183.94 95.318-236.18 95.318-23.5 0-42.737-6.235-57.177-18.53-15.251-12.975-24.756-32.369-28.253-57.63-1.962-12.391-1.997-25.21-0.096-38.106 4.718-35.421 18.504-58.625 43.365-73.013 21.303-12.33 48.021-16.42 78.951-21.155 61.79-9.453 138.23-21.146 223.34-101.18-4.578-13.298-8.938-26.683-13.193-39.72l-4.97-15.251 9.139-7.569c20.483-16.952 46.303-45.178 61.476-67.188-242.28-110.16-493.62-192.96-750.13-246.94l-0.235-0.052c-5.903-1.325-12.051-2.555-17.998-3.741-7.63-1.517-15.53-3.096-23.378-4.97l-14.972-3.567c-9.583 5.703-19.175 11.074-28.767 16.106l-0.096 0.052c-44.263 22.82-83.948 34.392-117.96 34.392-33.938 0-61.555-11.502-82.073-34.182l-0.131-0.148c-37.397-42.283-35.209-113.42-32.994-129.88 1.91-61.598 24.146-140.08 64.345-227.04 38.176-82.613 90.505-168.99 151.32-249.8 62.566-83.145 130.38-155.23 196.12-208.47 74.12-60.037 142.39-94.106 202.91-101.27l0.157-0.017c6.775-0.741 13.42-1.116 19.733-1.116 29.151 0 53.462 7.865 72.254 23.37 17.754 14.641 30.128 35.752 36.764 62.732 6.47 26.3 7.403 58.476 2.93 95.284l14.066-2.043z" fill="#fff"/>
</svg>
